<svg xmlns="http://www.w3.org/2000/svg" xmlns:xlink="http://www.w3.org/1999/xlink" width="1920" zoomAndPan="magnify" viewBox="0 0 1440 1439.999935" height="1920" preserveAspectRatio="xMidYMid meet" version="1.0"><defs><clipPath id="f95b20bc7f"><path d="M 315.183594 802.300781 L 579.832031 802.300781 L 579.832031 1066.953125 L 315.183594 1066.953125 Z M 315.183594 802.300781 " clip-rule="nonzero"/></clipPath><clipPath id="8c5480e009"><path d="M 447.507812 802.300781 C 374.425781 802.300781 315.183594 861.542969 315.183594 934.625 C 315.183594 1007.707031 374.425781 1066.953125 447.507812 1066.953125 C 520.589844 1066.953125 579.832031 1007.707031 579.832031 934.625 C 579.832031 861.542969 520.589844 802.300781 447.507812 802.300781 Z M 447.507812 802.300781 " clip-rule="nonzero"/></clipPath><clipPath id="ef10f4d301"><path d="M 0.183594 0.300781 L 264.832031 0.300781 L 264.832031 264.953125 L 0.183594 264.953125 Z M 0.183594 0.300781 " clip-rule="nonzero"/></clipPath><clipPath id="2f8c7bcb8c"><path d="M 132.507812 0.300781 C 59.425781 0.300781 0.183594 59.542969 0.183594 132.625 C 0.183594 205.707031 59.425781 264.953125 132.507812 264.953125 C 205.589844 264.953125 264.832031 205.707031 264.832031 132.625 C 264.832031 59.542969 205.589844 0.300781 132.507812 0.300781 Z M 132.507812 0.300781 " clip-rule="nonzero"/></clipPath><clipPath id="529d93ce3b"><rect x="0" width="265" y="0" height="265"/></clipPath><clipPath id="b55334dc11"><path d="M 607.015625 840.980469 L 832.984375 840.980469 L 832.984375 1066.949219 L 607.015625 1066.949219 Z M 607.015625 840.980469 " clip-rule="nonzero"/></clipPath><clipPath id="c675bc8a04"><path d="M 720 840.980469 C 657.597656 840.980469 607.015625 891.5625 607.015625 953.964844 C 607.015625 1016.367188 657.597656 1066.949219 720 1066.949219 C 782.402344 1066.949219 832.984375 1016.367188 832.984375 953.964844 C 832.984375 891.5625 782.402344 840.980469 720 840.980469 Z M 720 840.980469 " clip-rule="nonzero"/></clipPath><clipPath id="92075a3220"><path d="M 0.015625 0.980469 L 225.984375 0.980469 L 225.984375 226.949219 L 0.015625 226.949219 Z M 0.015625 0.980469 " clip-rule="nonzero"/></clipPath><clipPath id="afbf6b66a3"><path d="M 113 0.980469 C 50.597656 0.980469 0.015625 51.5625 0.015625 113.964844 C 0.015625 176.367188 50.597656 226.949219 113 226.949219 C 175.402344 226.949219 225.984375 176.367188 225.984375 113.964844 C 225.984375 51.5625 175.402344 0.980469 113 0.980469 Z M 113 0.980469 " clip-rule="nonzero"/></clipPath><clipPath id="0270c415d6"><rect x="0" width="226" y="0" height="227"/></clipPath><clipPath id="d872c814f8"><path d="M 873.484375 826.945312 L 1099.457031 826.945312 L 1099.457031 1052.917969 L 873.484375 1052.917969 Z M 873.484375 826.945312 " clip-rule="nonzero"/></clipPath><clipPath id="fd6109a68a"><path d="M 986.472656 826.945312 C 924.070312 826.945312 873.484375 877.527344 873.484375 939.929688 C 873.484375 1002.332031 924.070312 1052.917969 986.472656 1052.917969 C 1048.871094 1052.917969 1099.457031 1002.332031 1099.457031 939.929688 C 1099.457031 877.527344 1048.871094 826.945312 986.472656 826.945312 Z M 986.472656 826.945312 " clip-rule="nonzero"/></clipPath><clipPath id="e60a5f83ed"><path d="M 0.484375 0.945312 L 226.457031 0.945312 L 226.457031 226.917969 L 0.484375 226.917969 Z M 0.484375 0.945312 " clip-rule="nonzero"/></clipPath><clipPath id="8dd2857ce9"><path d="M 113.472656 0.945312 C 51.070312 0.945312 0.484375 51.527344 0.484375 113.929688 C 0.484375 176.332031 51.070312 226.917969 113.472656 226.917969 C 175.871094 226.917969 226.457031 176.332031 226.457031 113.929688 C 226.457031 51.527344 175.871094 0.945312 113.472656 0.945312 Z M 113.472656 0.945312 " clip-rule="nonzero"/></clipPath><clipPath id="29a924a4c1"><rect x="0" width="227" y="0" height="227"/></clipPath><clipPath id="b7040b6936"><path d="M 607.015625 373.046875 L 832.984375 373.046875 L 832.984375 599.019531 L 607.015625 599.019531 Z M 607.015625 373.046875 " clip-rule="nonzero"/></clipPath><clipPath id="c5430d4c7a"><path d="M 720 373.046875 C 657.597656 373.046875 607.015625 423.632812 607.015625 486.035156 C 607.015625 548.4375 657.597656 599.019531 720 599.019531 C 782.402344 599.019531 832.984375 548.4375 832.984375 486.035156 C 832.984375 423.632812 782.402344 373.046875 720 373.046875 Z M 720 373.046875 " clip-rule="nonzero"/></clipPath><clipPath id="8f2758c3b4"><path d="M 0.015625 0.046875 L 225.984375 0.046875 L 225.984375 226.019531 L 0.015625 226.019531 Z M 0.015625 0.046875 " clip-rule="nonzero"/></clipPath><clipPath id="259ebda9a6"><path d="M 113 0.046875 C 50.597656 0.046875 0.015625 50.632812 0.015625 113.035156 C 0.015625 175.4375 50.597656 226.019531 113 226.019531 C 175.402344 226.019531 225.984375 175.4375 225.984375 113.035156 C 225.984375 50.632812 175.402344 0.046875 113 0.046875 Z M 113 0.046875 " clip-rule="nonzero"/></clipPath><clipPath id="95a7df34c7"><rect x="0" width="226" y="0" height="227"/></clipPath><clipPath id="dc4c8d00b6"><path d="M 873.484375 373.046875 L 1099.457031 373.046875 L 1099.457031 599.019531 L 873.484375 599.019531 Z M 873.484375 373.046875 " clip-rule="nonzero"/></clipPath><clipPath id="cd0c37bbe0"><path d="M 986.472656 373.046875 C 924.070312 373.046875 873.484375 423.632812 873.484375 486.035156 C 873.484375 548.4375 924.070312 599.019531 986.472656 599.019531 C 1048.871094 599.019531 1099.457031 548.4375 1099.457031 486.035156 C 1099.457031 423.632812 1048.871094 373.046875 986.472656 373.046875 Z M 986.472656 373.046875 " clip-rule="nonzero"/></clipPath><clipPath id="247775a394"><path d="M 0.484375 0.046875 L 226.457031 0.046875 L 226.457031 226.019531 L 0.484375 226.019531 Z M 0.484375 0.046875 " clip-rule="nonzero"/></clipPath><clipPath id="ad8ea7d4d3"><path d="M 113.472656 0.046875 C 51.070312 0.046875 0.484375 50.632812 0.484375 113.035156 C 0.484375 175.4375 51.070312 226.019531 113.472656 226.019531 C 175.871094 226.019531 226.457031 175.4375 226.457031 113.035156 C 226.457031 50.632812 175.871094 0.046875 113.472656 0.046875 Z M 113.472656 0.046875 " clip-rule="nonzero"/></clipPath><clipPath id="7443e974ec"><rect x="0" width="227" y="0" height="227"/></clipPath><clipPath id="82faa8c00a"><path d="M 607.015625 486.035156 L 832.984375 486.035156 L 832.984375 940.605469 L 607.015625 940.605469 Z M 607.015625 486.035156 " clip-rule="nonzero"/></clipPath><clipPath id="c0337dc7f7"><path d="M 0.015625 0.0351562 L 225.984375 0.0351562 L 225.984375 454.605469 L 0.015625 454.605469 Z M 0.015625 0.0351562 " clip-rule="nonzero"/></clipPath><clipPath id="2db01ee767"><rect x="0" width="226" y="0" height="455"/></clipPath><clipPath id="832cf86f0f"><path d="M 873.484375 485.359375 L 1099.457031 485.359375 L 1099.457031 939.929688 L 873.484375 939.929688 Z M 873.484375 485.359375 " clip-rule="nonzero"/></clipPath><clipPath id="392b961b1c"><path d="M 0.484375 0.359375 L 226.457031 0.359375 L 226.457031 454.929688 L 0.484375 454.929688 Z M 0.484375 0.359375 " clip-rule="nonzero"/></clipPath><clipPath id="2614b58add"><rect x="0" width="227" y="0" height="455"/></clipPath></defs><g clip-path="url(#f95b20bc7f)"><g clip-path="url(#8c5480e009)"><g transform="matrix(1, 0, 0, 1, 315, 802)"><g clip-path="url(#529d93ce3b)"><g clip-path="url(#ef10f4d301)"><g clip-path="url(#2f8c7bcb8c)"><path fill="#ff751f" d="M 0.183594 0.300781 L 264.832031 0.300781 L 264.832031 264.949219 L 0.183594 264.949219 Z M 0.183594 0.300781 " fill-opacity="1" fill-rule="nonzero"/></g></g></g></g></g></g><g clip-path="url(#b55334dc11)"><g clip-path="url(#c675bc8a04)"><g transform="matrix(1, 0, 0, 1, 607, 840)"><g clip-path="url(#0270c415d6)"><g clip-path="url(#92075a3220)"><g clip-path="url(#afbf6b66a3)"><path fill="#ff751f" d="M 0.015625 0.980469 L 225.984375 0.980469 L 225.984375 226.949219 L 0.015625 226.949219 Z M 0.015625 0.980469 " fill-opacity="1" fill-rule="nonzero"/></g></g></g></g></g></g><g clip-path="url(#d872c814f8)"><g clip-path="url(#fd6109a68a)"><g transform="matrix(1, 0, 0, 1, 873, 826)"><g clip-path="url(#29a924a4c1)"><g clip-path="url(#e60a5f83ed)"><g clip-path="url(#8dd2857ce9)"><path fill="#ff751f" d="M 0.484375 0.945312 L 226.457031 0.945312 L 226.457031 226.917969 L 0.484375 226.917969 Z M 0.484375 0.945312 " fill-opacity="1" fill-rule="nonzero"/></g></g></g></g></g></g><g clip-path="url(#b7040b6936)"><g clip-path="url(#c5430d4c7a)"><g transform="matrix(1, 0, 0, 1, 607, 373)"><g clip-path="url(#95a7df34c7)"><g clip-path="url(#8f2758c3b4)"><g clip-path="url(#259ebda9a6)"><path fill="#ff751f" d="M 0.015625 0.046875 L 225.984375 0.046875 L 225.984375 226.019531 L 0.015625 226.019531 Z M 0.015625 0.046875 " fill-opacity="1" fill-rule="nonzero"/></g></g></g></g></g></g><g clip-path="url(#dc4c8d00b6)"><g clip-path="url(#cd0c37bbe0)"><g transform="matrix(1, 0, 0, 1, 873, 373)"><g clip-path="url(#7443e974ec)"><g clip-path="url(#247775a394)"><g clip-path="url(#ad8ea7d4d3)"><path fill="#ff751f" d="M 0.484375 0.046875 L 226.457031 0.046875 L 226.457031 226.019531 L 0.484375 226.019531 Z M 0.484375 0.046875 " fill-opacity="1" fill-rule="nonzero"/></g></g></g></g></g></g><g clip-path="url(#82faa8c00a)"><g transform="matrix(1, 0, 0, 1, 607, 486)"><g clip-path="url(#2db01ee767)"><g clip-path="url(#c0337dc7f7)"><path fill="#ff751f" d="M 0.015625 0.0351562 L 225.984375 0.0351562 L 225.984375 454.628906 L 0.015625 454.628906 Z M 0.015625 0.0351562 " fill-opacity="1" fill-rule="nonzero"/></g></g></g></g><g clip-path="url(#832cf86f0f)"><g transform="matrix(1, 0, 0, 1, 873, 485)"><g clip-path="url(#2614b58add)"><g clip-path="url(#392b961b1c)"><path fill="#ff751f" d="M 0.484375 0.359375 L 226.457031 0.359375 L 226.457031 454.953125 L 0.484375 454.953125 Z M 0.484375 0.359375 " fill-opacity="1" fill-rule="nonzero"/></g></g></g></g></svg>